# xmcd CD database file
#
# Track frame offsets:
#	150
#	18995
#	33396
#	48584
#	71723
#	91541
#	109828
#	136329
#	147342
#	163679
#	178585
#	195203
#	222452
#	248431
#
# Disc length: 3642 seconds
#
# Revision: 1
# Processed by: cddbd v1.5.2PL0 Copyright (c) Steve Scherf et al.
# Submitted via: CDex 1.51
#
DISCID=bc0e380e
DTITLE=Mick Martin and The Blues Rockers - Tip Of The Hat
DYEAR=2002
DGENRE=Blues
TTITLE0=Whisky Train
TTITLE1=I'm Your Kingpin
TTITLE2=Gotta See Her Tonight
TTITLE3=Dear Jill
TTITLE4=It's Breaking Me Up
TTITLE5=No Questions
TTITLE6=Empty Heart
TTITLE7=She Got A Ring In His Nose
TTITLE8=Broken Wings
TTITLE9=Gotta Getb The First Plane Home/ It's All Right
TTITLE10=Riding On The L&M
TTITLE11=The Red Rooster
TTITLE12=Momma Kepp Your Big Mouth Shut
TTITLE13=Ridin It The Moonlight
EXTD=YEAR: 2002
EXTT0=
EXTT1=
EXTT2=
EXTT3=
EXTT4=
EXTT5=
EXTT6=
EXTT7=
EXTT8=
EXTT9=
EXTT10=
EXTT11=
EXTT12=
EXTT13=
PLAYORDER=
